<svg aria-hidden="true" xmlns="http://www.w3.org/2000/svg" viewBox="0 0 640 512"><path fill="#ccc" d="M525 70a2 2 0 0 0-1-1 485 485 0 0 0-120-37 2 2 0 0 0-2 1 337 337 0 0 0-15 31 448 448 0 0 0-134 0 310 310 0 0 0-15-31 2 2 0 0 0-2-1 484 484 0 0 0-120 37 2 2 0 0 0-1 1 496 496 0 0 0-87 334 2 2 0 0 0 1 2 488 488 0 0 0 147 74 2 2 0 0 0 2-1 348 348 0 0 0 30-49 2 2 0 0 0-1-2 321 321 0 0 1-46-22 2 2 0 0 1 0-3l9-7a2 2 0 0 1 2-1c96 44 200 44 296 0a2 2 0 0 1 1 1l10 7a2 2 0 0 1-1 3 301 301 0 0 1-45 22 2 2 0 0 0-1 2 391 391 0 0 0 30 49 2 2 0 0 0 2 1 486 486 0 0 0 147-74 2 2 0 0 0 0-2c13-126-20-237-86-334ZM222 338c-28 0-52-27-52-60s23-59 52-59c30 0 54 27 53 59 0 33-23 60-53 60Zm196 0c-29 0-53-27-53-60s23-59 53-59 53 27 53 59c0 33-23 60-53 60Z"/></svg>